<svg width="76" height="16" viewBox="0 0 76 16" fill="none" xmlns="http://www.w3.org/2000/svg">
<path d="M7.73375 0L9.92481 4.718L15.089 5.34389L11.279 8.88566L12.2795 13.9905L7.73375 11.4614L3.18796 13.9905L4.18853 8.88566L0.378517 5.34389L5.54268 4.718L7.73375 0Z" fill="#FFC633"/>
<path d="M27.6449 0L29.836 4.718L35.0002 5.34389L31.1902 8.88566L32.1907 13.9905L27.6449 11.4614L23.0992 13.9905L24.0997 8.88566L20.2897 5.34389L25.4539 4.718L27.6449 0Z" fill="#FFC633"/>
<path d="M47.5561 0L49.7472 4.718L54.9114 5.34389L51.1014 8.88566L52.1019 13.9905L47.5561 11.4614L43.0104 13.9905L44.0109 8.88566L40.2009 5.34389L45.3651 4.718L47.5561 0Z" fill="#FFC633"/>
<path d="M67.4673 0L69.6584 4.718L74.8226 5.34389L71.0125 8.88566L72.0131 13.9905L67.4673 11.4614L62.9215 13.9905L63.9221 8.88566L60.1121 5.34389L65.2763 4.718L67.4673 0Z" fill="#FFC633"/>
</svg>
