
<svg xmlns="http://www.w3.org/2000/svg">

<symbol id="twitter"  viewBox="0 0 28 28" fill="none" >
  <circle cx="14" cy="14" r="14" fill="white" />
  <circle cx="14" cy="14" r="13.5" stroke="black" stroke-opacity="0.2" />
  <path d="M20.2071 10.9831C19.7881 11.1693 19.3458 11.2857 18.8802 11.3556C19.3458 11.0762 19.7183 10.6339 19.8812 10.0985C19.4389 10.3546 18.9501 10.5408 18.4146 10.6572C17.9956 10.2149 17.3904 9.93555 16.7386 9.93555C15.4815 9.93555 14.4572 10.9598 14.4572 12.2169C14.4572 12.4031 14.4805 12.5661 14.5271 12.729C12.6415 12.6359 10.9421 11.728 9.80141 10.3313C9.61518 10.6805 9.49878 11.0529 9.49878 11.472C9.49878 12.2634 9.89453 12.9618 10.5231 13.3808C10.1506 13.3576 9.80141 13.2644 9.4755 13.1015V13.1248C9.4755 14.2422 10.267 15.1733 11.3145 15.3828C11.1283 15.4294 10.9188 15.4527 10.7093 15.4527C10.5696 15.4527 10.4067 15.4294 10.267 15.4061C10.5696 16.314 11.4077 16.9891 12.4087 16.9891C11.6172 17.5943 10.6395 17.9668 9.56862 17.9668C9.38239 17.9668 9.19616 17.9668 9.0332 17.9435C10.0575 18.5953 11.2447 18.9678 12.5483 18.9678C16.7618 18.9678 19.0665 15.476 19.0665 12.4497C19.0665 12.3566 19.0665 12.2402 19.0665 12.1471C19.5088 11.8444 19.9045 11.4487 20.2071 10.9831Z" fill="black" />
</symbol>


<symbol id="facebook"  viewBox="0 0 28 28" fill="none">
  <circle cx="14" cy="14" r="14" fill="black" />
  <path d="M12.7087 20.3038V14.7503H10.8398V12.5859H12.7087V10.9898C12.7087 9.13752 13.84 8.12891 15.4924 8.12891C16.2839 8.12891 16.9642 8.18784 17.1624 8.21417V10.1499L16.0164 10.1505C15.1178 10.1505 14.9438 10.5775 14.9438 11.2041V12.5859H17.087L16.8079 14.7503H14.9438V20.3038H12.7087Z" fill="white" />
</symbol>


<symbol id="instagram" viewBox="0 0 28 28" fill="none" >
  <circle cx="14" cy="14" r="14" fill="white" />
  <circle cx="14" cy="14" r="13.5" stroke="black" stroke-opacity="0.2" />
  <path d="M14.0008 8.44721C15.8095 8.44721 16.0237 8.45398 16.7382 8.48656C17.1678 8.49182 17.5933 8.5707 17.9962 8.71979C18.2884 8.83248 18.5538 9.00511 18.7753 9.22656C18.9967 9.44802 19.1694 9.71339 19.282 10.0056C19.4311 10.4085 19.51 10.8341 19.5153 11.2637C19.5475 11.9782 19.5546 12.1924 19.5546 14.0011C19.5546 15.8098 19.5479 16.024 19.5153 16.7385C19.51 17.1681 19.4311 17.5936 19.282 17.9966C19.1694 18.2888 18.9967 18.5541 18.7753 18.7756C18.5538 18.997 18.2884 19.1697 17.9962 19.2824C17.5933 19.4315 17.1678 19.5103 16.7382 19.5156C16.024 19.5479 15.8098 19.5549 14.0008 19.5549C12.1917 19.5549 11.9775 19.5482 11.2633 19.5156C10.8337 19.5103 10.4082 19.4315 10.0053 19.2824C9.71307 19.1697 9.44769 18.997 9.22624 18.7756C9.00479 18.5541 8.83216 18.2888 8.71947 17.9966C8.57038 17.5936 8.4915 17.1681 8.48624 16.7385C8.45398 16.024 8.44689 15.8098 8.44689 14.0011C8.44689 12.1924 8.45366 11.9782 8.48624 11.2637C8.4915 10.8341 8.57038 10.4085 8.71947 10.0056C8.83216 9.71339 9.00479 9.44802 9.22624 9.22656C9.44769 9.00511 9.71307 8.83248 10.0053 8.71979C10.4082 8.5707 10.8337 8.49182 11.2633 8.48656C11.9779 8.4543 12.192 8.44721 14.0008 8.44721ZM14.0008 7.22656C12.162 7.22656 11.9304 7.2343 11.2079 7.26721C10.6456 7.27839 10.0893 7.38485 9.56269 7.58205C9.11092 7.75226 8.70172 8.019 8.36366 8.36366C8.01869 8.70184 7.75172 9.11127 7.5814 9.56334C7.3842 10.09 7.27775 10.6463 7.26656 11.2085C7.2343 11.9304 7.22656 12.162 7.22656 14.0008C7.22656 15.8395 7.2343 16.0711 7.26721 16.7937C7.27839 17.3559 7.38485 17.9122 7.58205 18.4388C7.75218 18.8908 8.01892 19.3002 8.36366 19.6385C8.70191 19.9832 9.11133 20.25 9.56334 20.4201C10.09 20.6173 10.6463 20.7238 11.2085 20.7349C11.9311 20.7672 12.1617 20.7756 14.0014 20.7756C15.8411 20.7756 16.0717 20.7679 16.7943 20.7349C17.3565 20.7238 17.9128 20.6173 18.4395 20.4201C18.8893 20.2457 19.2978 19.9794 19.6389 19.6381C19.98 19.2968 20.246 18.8882 20.4201 18.4382C20.6173 17.9115 20.7238 17.3553 20.735 16.793C20.7672 16.0711 20.775 15.8395 20.775 14.0008C20.775 12.162 20.7672 11.9304 20.7343 11.2079C20.7231 10.6456 20.6167 10.0893 20.4195 9.56269C20.2493 9.11068 19.9826 8.70126 19.6379 8.36301C19.2996 8.01828 18.8902 7.75153 18.4382 7.5814C17.9115 7.3842 17.3553 7.27775 16.793 7.26656C16.0711 7.2343 15.8395 7.22656 14.0008 7.22656Z" fill="black" />
  <path d="M14.0021 10.5234C13.3141 10.5234 12.6416 10.7275 12.0695 11.1097C11.4974 11.492 11.0515 12.0353 10.7882 12.6709C10.5249 13.3066 10.4561 14.006 10.5903 14.6808C10.7245 15.3556 11.0558 15.9755 11.5423 16.462C12.0288 16.9485 12.6487 17.2798 13.3235 17.414C13.9983 17.5482 14.6977 17.4794 15.3334 17.2161C15.969 16.9528 16.5123 16.5069 16.8946 15.9348C17.2768 15.3627 17.4809 14.6902 17.4809 14.0021C17.4809 13.0795 17.1144 12.1947 16.462 11.5423C15.8096 10.8899 14.9248 10.5234 14.0021 10.5234ZM14.0021 16.2602C13.5555 16.2602 13.119 16.1278 12.7476 15.8797C12.3763 15.6315 12.0869 15.2789 11.916 14.8663C11.7451 14.4537 11.7003 13.9996 11.7875 13.5616C11.8746 13.1236 12.0897 12.7213 12.4055 12.4055C12.7213 12.0897 13.1236 11.8746 13.5616 11.7875C13.9996 11.7003 14.4537 11.7451 14.8663 11.916C15.2789 12.0869 15.6315 12.3763 15.8797 12.7476C16.1278 13.119 16.2602 13.5555 16.2602 14.0021C16.2602 14.601 16.0223 15.1754 15.5988 15.5988C15.1754 16.0223 14.601 16.2602 14.0021 16.2602Z" fill="black" />
  <path d="M17.6176 11.1981C18.0665 11.1981 18.4305 10.8341 18.4305 10.3852C18.4305 9.93621 18.0665 9.57227 17.6176 9.57227C17.1686 9.57227 16.8047 9.93621 16.8047 10.3852C16.8047 10.8341 17.1686 11.1981 17.6176 11.1981Z" fill="black" />
</symbol>

<symbol id="github"  viewBox="0 0 28 28" fill="none" >
  <circle cx="14" cy="14" r="14" fill="white" />
  <circle cx="14" cy="14" r="13.5" stroke="black" stroke-opacity="0.2" />
  <path fill-rule="evenodd" clip-rule="evenodd" d="M14.6068 7.22656C11.0159 7.22656 8.12695 10.1155 8.12695 13.7065C8.12695 16.5684 9.98992 18.9984 12.5549 19.8624C12.8789 19.9164 12.9869 19.7274 12.9869 19.5384C12.9869 19.3764 12.9869 18.9714 12.9869 18.4314C11.1779 18.8364 10.7999 17.5674 10.7999 17.5674C10.5029 16.8114 10.0709 16.6224 10.0709 16.6224C9.47693 16.2174 10.1249 16.2174 10.1249 16.2174C10.7729 16.2714 11.1239 16.8924 11.1239 16.8924C11.6909 17.8914 12.6359 17.5944 13.0139 17.4324C13.0679 17.0004 13.2299 16.7304 13.4189 16.5684C11.9879 16.4064 10.4759 15.8394 10.4759 13.3555C10.4759 12.6535 10.7189 12.0595 11.1509 11.6275C11.0969 11.4655 10.8539 10.8175 11.2049 9.89952C11.2049 9.89952 11.7449 9.73752 12.9869 10.5745C13.4999 10.4395 14.0669 10.3585 14.6068 10.3585C15.1468 10.3585 15.7138 10.4395 16.2268 10.5745C17.4688 9.73752 18.0088 9.89952 18.0088 9.89952C18.3598 10.7905 18.1438 11.4385 18.0628 11.6275C18.4678 12.0865 18.7378 12.6535 18.7378 13.3555C18.7378 15.8394 17.2258 16.3794 15.7678 16.5414C16.0108 16.7304 16.1998 17.1354 16.1998 17.7294C16.1998 18.5934 16.1998 19.2954 16.1998 19.5114C16.1998 19.6734 16.3078 19.8894 16.6588 19.8354C19.2238 18.9984 21.0867 16.5684 21.0867 13.7065C21.0867 10.1155 18.1978 7.22656 14.6068 7.22656Z" fill="black" />
</symbol>

<symbol id="visa" width="33" height="11" viewBox="0 0 33 11" fill="none" xmlns="http://www.w3.org/2000/svg">
  <path d="M16.1111 0.185933L13.9369 10.3495H11.3078L13.4823 0.185933H16.1111ZM27.1728 6.74857L28.557 2.93181L29.3535 6.74857H27.1728ZM30.1062 10.3495H32.5381L30.416 0.185933H28.1713C27.6669 0.185933 27.2413 0.479306 27.0518 0.931592L23.1074 10.3495H25.8684L26.4165 8.83179H29.7897L30.1062 10.3495ZM23.2444 7.03101C23.2557 4.3485 19.5348 4.20085 19.5605 3.00258C19.5682 2.63747 19.916 2.25017 20.6755 2.15077C21.0528 2.10155 22.0902 2.06391 23.2682 2.60595L23.7295 0.450677C23.0968 0.220996 22.2826 0 21.2699 0C18.6714 0 16.8423 1.38163 16.8269 3.35997C16.8104 4.82298 18.1326 5.63941 19.1288 6.12579C20.153 6.62408 20.4972 6.94319 20.4927 7.38872C20.486 8.07101 19.6757 8.37146 18.9197 8.38336C17.5976 8.40427 16.8304 8.02662 16.2189 7.7416L15.7425 9.96861C16.3566 10.2507 17.4905 10.4958 18.6669 10.5084C21.4285 10.5084 23.2354 9.14382 23.2444 7.03101ZM12.3542 0.185933L8.09448 10.3495H5.31483L3.21875 2.23826C3.09136 1.73869 2.9807 1.55598 2.59372 1.34528C1.96226 1.00268 0.918402 0.68068 0 0.481237L0.0627279 0.185933H4.53636C5.10638 0.185933 5.61946 0.565517 5.74878 1.22207L6.856 7.10371L9.59191 0.185933H12.3542Z" fill="#1434CB" />
</symbol>

<symbol id="mastercard"  viewBox="0 0 26 16" fill="none" >
  <path d="M16.1226 1.677H9.25929V14.0105H16.1226V1.677Z" fill="#FF5F00" />
  <path d="M9.69511 7.84375C9.69403 6.65594 9.96319 5.48346 10.4822 4.41506C11.0013 3.34665 11.7566 2.41034 12.691 1.677C11.5338 0.767478 10.1442 0.201863 8.68081 0.0447978C7.21744 -0.112267 5.7394 0.14555 4.41563 0.788793C3.09185 1.43204 1.97576 2.43475 1.19492 3.68232C0.414079 4.92988 0 6.37197 0 7.84375C0 9.31553 0.414079 10.7576 1.19492 12.0052C1.97576 13.2527 3.09185 14.2555 4.41563 14.8987C5.7394 15.542 7.21744 15.7998 8.68081 15.6427C10.1442 15.4856 11.5338 14.92 12.691 14.0105C11.7566 13.2772 11.0013 12.3408 10.4822 11.2724C9.9632 10.204 9.69404 9.03155 9.69511 7.84375Z" fill="#EB001B" />
  <path d="M25.3815 7.84375C25.3816 9.31551 24.9676 10.7576 24.1868 12.0052C23.406 13.2527 22.2899 14.2554 20.9662 14.8987C19.6424 15.5419 18.1644 15.7998 16.701 15.6427C15.2377 15.4856 13.848 14.92 12.691 14.0105C13.6245 13.2764 14.3792 12.34 14.8982 11.2717C15.4171 10.2035 15.6868 9.03137 15.6868 7.84375C15.6868 6.65613 15.4171 5.48401 14.8982 4.41578C14.3792 3.34755 13.6245 2.41108 12.691 1.677C13.848 0.767477 15.2377 0.201859 16.701 0.0447958C18.1644 -0.112267 19.6424 0.145561 20.9662 0.788811C22.2899 1.43206 23.406 2.43477 24.1868 3.68234C24.9676 4.92991 25.3816 6.37199 25.3815 7.84375Z" fill="#F79E1B" />
  <path d="M24.6332 12.7042V12.4517H24.735V12.4002H24.4757V12.4517H24.5776V12.7042H24.6332ZM25.1366 12.7042V12.3998H25.0571L24.9657 12.6092L24.8743 12.3998H24.7947V12.7042H24.8509V12.4745L24.9366 12.6725H24.9948L25.0805 12.474V12.7042H25.1366Z" fill="#F79E1B" />
</symbol>


<symbol id="paypal" width="35" height="10" viewBox="0 0 35 10" fill="none" xmlns="http://www.w3.org/2000/svg">
  <path fill-rule="evenodd" clip-rule="evenodd" d="M4.14627 0.000976297H1.45878C1.27487 0.000976297 1.11846 0.134622 1.08978 0.316091L0.00281925 7.20683C-0.018785 7.34284 0.0865276 7.4654 0.224464 7.4654H1.5075C1.69141 7.4654 1.84782 7.33175 1.8765 7.14992L2.16966 5.2914C2.19794 5.10939 2.35474 4.97592 2.53826 4.97592H3.38903C5.15938 4.97592 6.18104 4.11931 6.448 2.4219C6.5682 1.67929 6.45309 1.09579 6.1052 0.687029C5.72331 0.238448 5.04572 0.000976297 4.14627 0.000976297ZM4.45633 2.51772C4.30939 3.48198 3.57256 3.48198 2.86011 3.48198H2.45456L2.73907 1.68111C2.75596 1.57238 2.85027 1.49219 2.96031 1.49219H3.14618C3.6315 1.49219 4.08935 1.49219 4.32594 1.76875C4.46688 1.93386 4.51016 2.17897 4.45633 2.51772ZM12.1799 2.48681H10.8929C10.7832 2.48681 10.6885 2.567 10.6716 2.67592L10.6146 3.03577L10.5246 2.90539C10.246 2.50099 9.62481 2.36589 9.00468 2.36589C7.5824 2.36589 6.3678 3.44289 6.13121 4.95374C6.00827 5.70725 6.18304 6.42786 6.61058 6.93044C7.00283 7.39248 7.56404 7.58504 8.23162 7.58504C9.37748 7.58504 10.0131 6.84825 10.0131 6.84825L9.9556 7.20592C9.93396 7.34266 10.0392 7.46522 10.1764 7.46522H11.3357C11.5201 7.46522 11.6756 7.33157 11.7047 7.14973L12.4003 2.74538C12.4223 2.60991 12.3173 2.48681 12.1799 2.48681ZM10.3859 4.99137C10.2617 5.72652 9.67809 6.22003 8.93394 6.22003C8.56023 6.22003 8.26145 6.10019 8.06977 5.87309C7.87955 5.64761 7.80717 5.3265 7.86773 4.96901C7.98375 4.24005 8.57714 3.73055 9.31002 3.73055C9.67536 3.73055 9.97251 3.85183 10.1682 4.08094C10.3642 4.31241 10.4421 4.63535 10.3859 4.99137ZM17.7408 2.48663H19.0341C19.2152 2.48663 19.3209 2.68974 19.218 2.8383L14.9166 9.04643C14.8469 9.14698 14.7322 9.20681 14.6096 9.20681H13.3179C13.136 9.20681 13.0298 9.00206 13.1351 8.85314L14.4745 6.96281L13.05 2.78283C13.0007 2.63755 13.108 2.48663 13.2626 2.48663H14.5334C14.6985 2.48663 14.8442 2.595 14.8918 2.75302L15.6478 5.27758L17.4316 2.65046C17.5014 2.54791 17.6175 2.48663 17.7408 2.48663Z" fill="#253B80" />
  <path fill-rule="evenodd" clip-rule="evenodd" d="M31.7633 7.20621L32.8663 0.189468C32.8832 0.0805504 32.9776 0.000363666 33.0872 0H34.3289C34.466 0 34.5713 0.122918 34.5497 0.258929L33.462 7.1493C33.4337 7.33113 33.2773 7.46478 33.093 7.46478H31.9841C31.847 7.46478 31.7417 7.34223 31.7633 7.20621ZM23.3164 0.000360768H20.6284C20.4449 0.000360768 20.2885 0.134008 20.2598 0.315477L19.1728 7.20621C19.1512 7.34223 19.2565 7.46478 19.3938 7.46478H20.773C20.9012 7.46478 21.0108 7.37132 21.0308 7.24404L21.3393 5.29079C21.3676 5.10877 21.5244 4.97531 21.7079 4.97531H22.5582C24.329 4.97531 25.3504 4.11869 25.6176 2.42128C25.7381 1.67868 25.6223 1.09518 25.2746 0.686417C24.8929 0.237835 24.2158 0.000360768 23.3164 0.000360768ZM23.6264 2.51711C23.4799 3.48137 22.743 3.48137 22.0301 3.48137H21.625L21.9099 1.6805C21.9268 1.57176 22.0203 1.49157 22.1307 1.49157H22.3166C22.8016 1.49157 23.2598 1.49157 23.4962 1.76814C23.6374 1.93324 23.6803 2.17836 23.6264 2.51711ZM31.3492 2.4862H30.0632C29.9526 2.4862 29.8588 2.56639 29.8422 2.6753L29.7853 3.03515L29.6949 2.90478C29.4163 2.50038 28.7955 2.36528 28.1753 2.36528C26.7531 2.36528 25.5388 3.44228 25.3022 4.95313C25.1797 5.70664 25.3537 6.42724 25.7812 6.92983C26.1742 7.39187 26.7347 7.58443 27.4023 7.58443C28.5481 7.58443 29.1835 6.84764 29.1835 6.84764L29.1263 7.20531C29.1046 7.34205 29.2099 7.4646 29.3479 7.4646H30.5067C30.6902 7.4646 30.8466 7.33095 30.8753 7.14912L31.5713 2.74477C31.5926 2.6093 31.4873 2.4862 31.3492 2.4862ZM29.5554 4.99076C29.432 5.72591 28.8477 6.21941 28.1033 6.21941C27.7304 6.21941 27.431 6.09958 27.2392 5.87247C27.0489 5.647 26.9775 5.32589 27.0373 4.9684C27.1539 4.23943 27.7465 3.72994 28.4794 3.72994C28.8449 3.72994 29.1419 3.85122 29.3378 4.08033C29.5345 4.3118 29.6124 4.63473 29.5554 4.99076Z" fill="#179BD7" />
</symbol>


<symbol id="applepay" width="27" height="12" viewBox="0 0 27 12" fill="none" xmlns="http://www.w3.org/2000/svg">
  <path d="M4.99229 1.44499C5.30328 1.05601 5.51432 0.533719 5.45866 0C5.00341 0.0226369 4.44787 0.300343 4.12624 0.689632C3.83745 1.023 3.58184 1.56716 3.64848 2.0785C4.15952 2.12283 4.67008 1.82306 4.99229 1.44499Z" fill="#000008" />
  <path d="M5.45287 2.17835C4.71072 2.13414 4.07971 2.59956 3.72529 2.59956C3.37068 2.59956 2.82796 2.20063 2.24095 2.21138C1.47693 2.2226 0.76801 2.65458 0.380302 3.34164C-0.417147 4.71609 0.169856 6.75489 0.945333 7.8743C1.32192 8.42811 1.77578 9.0379 2.3738 9.016C2.93883 8.99382 3.1603 8.65013 3.84712 8.65013C4.53343 8.65013 4.73293 9.016 5.33105 9.00491C5.95131 8.99382 6.33909 8.45083 6.71568 7.89648C7.14769 7.26516 7.32455 6.65558 7.33567 6.62211C7.32454 6.61103 6.13962 6.15646 6.12864 4.79343C6.11745 3.65215 7.05893 3.10929 7.10324 3.07562C6.57158 2.28929 5.74087 2.20063 5.45287 2.17835Z" fill="#000008" />
  <path d="M11.9149 0.633805C13.528 0.633805 14.6512 1.7457 14.6512 3.36454C14.6512 4.98915 13.5049 6.10682 11.8745 6.10682H10.0885V8.94701H8.79817V0.633803L11.9149 0.633805ZM10.0885 5.02371H11.5691C12.6926 5.02371 13.332 4.41887 13.332 3.37031C13.332 2.32187 12.6926 1.7227 11.5749 1.7227H10.0885V5.02371Z" fill="#000008" />
  <path d="M14.9883 7.22448C14.9883 6.16437 15.8006 5.51341 17.241 5.43274L18.9001 5.33484V4.86823C18.9001 4.19416 18.4449 3.7909 17.6846 3.7909C16.9643 3.7909 16.5149 4.13649 16.4056 4.6781H15.2304C15.2995 3.58343 16.2327 2.7769 17.7306 2.7769C19.1997 2.7769 20.1386 3.55465 20.1386 4.77022V8.94699H18.9461V7.95033H18.9174C18.566 8.6244 17.7997 9.05067 17.0048 9.05067C15.818 9.05067 14.9883 8.31326 14.9883 7.22448ZM18.9001 6.6772V6.19904L17.4079 6.29116C16.6647 6.34306 16.2442 6.67142 16.2442 7.18992C16.2442 7.71987 16.6821 8.06557 17.3504 8.06557C18.2202 8.06557 18.9001 7.46639 18.9001 6.6772Z" fill="#000008" />
  <path d="M21.2645 11.1766V10.1683C21.3566 10.1913 21.5639 10.1913 21.6677 10.1913C22.2438 10.1913 22.5549 9.94943 22.7449 9.32726C22.7449 9.3157 22.8545 8.95855 22.8545 8.95277L20.6654 2.88636H22.0133L23.5459 7.81787H23.5688L25.1014 2.88636H26.4149L24.1448 9.2638C23.6266 10.733 23.0274 11.2053 21.7715 11.2053C21.6677 11.2053 21.3566 11.1938 21.2645 11.1766Z" fill="#000008" />
</symbol>


<symbol id="googlepay"  viewBox="0 0 29 12" fill="none" >
  <path d="M13.3296 8.75346H12.2811V0.595211H15.0606C15.765 0.595211 16.3657 0.830021 16.8572 1.29964C17.3595 1.76926 17.6107 2.34263 17.6107 3.01975C17.6107 3.71326 17.3595 4.28663 16.8572 4.75079C16.3712 5.21494 15.7705 5.44429 15.0606 5.44429H13.3296V8.75346ZM13.3296 1.59998V4.44499H15.0824C15.4974 4.44499 15.8469 4.30301 16.12 4.02452C16.3985 3.74602 16.5404 3.40746 16.5404 3.02521C16.5404 2.64842 16.3985 2.31533 16.12 2.03683C15.8469 1.74741 15.5029 1.60544 15.0824 1.60544H13.3296V1.59998Z" fill="#3C4043" />
  <path d="M20.3519 2.98699C21.1273 2.98699 21.7389 3.19449 22.1866 3.6095C22.6344 4.02452 22.8583 4.59243 22.8583 5.31324V8.75346H21.859V7.97804H21.8153C21.3839 8.61694 20.8051 8.93366 20.0843 8.93366C19.4672 8.93366 18.9539 8.75346 18.5389 8.3876C18.1239 8.02173 17.9164 7.56849 17.9164 7.02243C17.9164 6.44359 18.1348 5.9849 18.5717 5.64634C19.0085 5.30231 19.5928 5.13303 20.3191 5.13303C20.9416 5.13303 21.4549 5.24771 21.8535 5.47706V5.23678C21.8535 4.87092 21.7116 4.56512 21.4221 4.30847C21.1327 4.05182 20.7942 3.92622 20.4065 3.92622C19.8222 3.92622 19.358 4.17195 19.0195 4.66888L18.0966 4.09004C18.6045 3.35285 19.358 2.98699 20.3519 2.98699ZM18.9976 7.03881C18.9976 7.31184 19.1123 7.54119 19.3471 7.72139C19.5764 7.90159 19.8495 7.99443 20.1607 7.99443C20.6031 7.99443 20.9962 7.83061 21.3402 7.50297C21.6843 7.17532 21.859 6.79308 21.859 6.35076C21.5314 6.09411 21.0781 5.96306 20.4938 5.96306C20.0679 5.96306 19.713 6.06681 19.429 6.26885C19.1396 6.48182 18.9976 6.73847 18.9976 7.03881Z" fill="#3C4043" />
  <path d="M28.5593 3.16724L25.0645 11.2054H23.9832L25.2829 8.39311L22.9785 3.16724H24.1198L25.7798 7.17538H25.8016L27.418 3.16724H28.5593Z" fill="#3C4043" />
  <path d="M9.1592 4.78355C9.1592 4.44172 9.12862 4.11462 9.07183 3.80009H4.6771V5.60211L7.20812 5.60265C7.10545 6.20224 6.77508 6.71336 6.26888 7.0541V8.22323H7.77548C8.65519 7.40905 9.1592 6.20551 9.1592 4.78355Z" fill="#4285F4" />
  <path d="M6.26942 7.05416C5.85004 7.33702 5.30998 7.50248 4.67818 7.50248C3.45773 7.50248 2.42239 6.6801 2.05161 5.57158H0.497511V6.7773C1.26746 8.3052 2.84996 9.35365 4.67818 9.35365C5.94178 9.35365 7.00333 8.93809 7.77601 8.22274L6.26942 7.05416Z" fill="#34A853" />
  <path d="M1.90522 4.67706C1.90522 4.3658 1.9571 4.06492 2.05156 3.78206V2.57634H0.497464C0.179109 3.20814 0 3.9213 0 4.67706C0 5.43282 0.179655 6.14598 0.497464 6.77778L2.05156 5.57206C1.9571 5.2892 1.90522 4.98832 1.90522 4.67706Z" fill="#FABB05" />
  <path d="M4.67818 1.85117C5.36786 1.85117 5.98546 2.08871 6.4731 2.55287L7.80823 1.21882C6.99732 0.463612 5.94014 0 4.67818 0C2.8505 0 1.26742 1.04844 0.497464 2.57634L2.05156 3.78206C2.42234 2.67354 3.45773 1.85117 4.67818 1.85117Z" fill="#E94235" />
</symbol>

</svg>