<svg width="166" height="25" viewBox="0 0 166 25" fill="none" xmlns="http://www.w3.org/2000/svg">
<path d="M11.9041 24.9793C3.81928 24.9515 -0.000114207 22.4424 0.195037 16.3648H7.13686C7.22049 17.9539 8.55867 18.9296 11.9041 18.9575C14.8593 18.9854 16.2253 18.149 16.2253 17.0618C16.2253 16.309 15.8072 15.5284 13.5211 15.1939L10.5102 14.7199C6.07746 13.9951 0.752613 13.4654 0.752613 7.47146C0.752613 2.84358 4.51625 -6.00167e-05 11.9599 -6.00167e-05C18.6787 -6.00167e-05 23.3623 1.86782 23.2229 8.55873H16.3369C16.0581 6.99752 14.7478 6.02176 11.7926 6.02176C9.22777 6.02176 8.16837 6.80236 8.16837 7.86176C8.16837 8.53085 8.58655 9.33933 10.3708 9.61812L12.852 10.0363C17.5078 10.8169 23.892 10.9563 23.892 17.3684C23.892 22.4702 19.9332 25.0072 11.9041 24.9793ZM42.1644 0.780547H49.8868V24.1987H42.1644V15.7236H33.0759V24.1987H25.3535V0.780547H33.0759V9.2557H42.1644V0.780547ZM64.7013 24.9793C56.6444 24.9793 51.431 19.989 51.431 12.4896C51.431 4.99024 56.6444 -6.00167e-05 64.7013 -6.00167e-05C72.7583 -6.00167e-05 77.9716 4.99024 77.9716 12.4896C77.9716 19.989 72.7583 24.9793 64.7013 24.9793ZM64.7013 18.3163C67.768 18.3163 70.305 16.1975 70.305 12.4896C70.305 8.78176 67.768 6.66297 64.7013 6.66297C61.6347 6.66297 59.0977 8.78176 59.0977 12.4896C59.0977 16.1975 61.6347 18.3163 64.7013 18.3163ZM79.5211 24.1987V0.780547H92.8193C99.2035 0.780547 102.995 3.62418 102.995 9.92479C102.995 16.2254 99.2035 19.069 92.8471 19.069H87.2435V24.1987H79.5211ZM87.2435 12.6569H92.1502C94.0181 12.6569 95.2168 11.7369 95.2168 9.92479C95.2168 8.11267 94.0181 7.19267 92.1781 7.19267H87.2435V12.6569ZM106.858 24.6448C104.768 24.6448 103.011 22.9163 103.011 20.8533C103.011 18.7902 104.768 17.0618 106.858 17.0618C108.949 17.0618 110.706 18.7902 110.706 20.8533C110.706 22.9163 108.949 24.6448 106.858 24.6448ZM125.39 24.9793C117.5 24.9793 112.231 19.989 112.231 12.4896C112.231 4.99024 117.5 -6.00167e-05 125.39 -6.00167e-05C131.105 -6.00167e-05 136.959 2.50903 137.74 10.4266H130.38C129.739 7.86176 127.927 6.66297 125.39 6.66297C122.323 6.66297 119.897 8.94903 119.897 12.4896C119.897 16.0302 122.323 18.3163 125.39 18.3163C127.927 18.3163 129.739 17.1175 130.38 14.4969H137.74C136.959 22.4702 131.16 24.9793 125.39 24.9793ZM152.422 24.9793C144.365 24.9793 139.151 19.989 139.151 12.4896C139.151 4.99024 144.365 -6.00167e-05 152.422 -6.00167e-05C160.478 -6.00167e-05 165.692 4.99024 165.692 12.4896C165.692 19.989 160.478 24.9793 152.422 24.9793ZM152.422 18.3163C155.488 18.3163 158.025 16.1975 158.025 12.4896C158.025 8.78176 155.488 6.66297 152.422 6.66297C149.355 6.66297 146.818 8.78176 146.818 12.4896C146.818 16.1975 149.355 18.3163 152.422 18.3163Z" fill="black"/>
</svg>
