<svg width="19" height="19" viewBox="0 0 19 19" fill="none" xmlns="http://www.w3.org/2000/svg">
<path d="M9.5 1.78125C7.97338 1.78125 6.48104 2.23395 5.2117 3.08209C3.94235 3.93024 2.95302 5.13574 2.36881 6.54616C1.78459 7.95658 1.63174 9.50856 1.92957 11.0059C2.2274 12.5031 2.96254 13.8785 4.04202 14.958C5.12151 16.0375 6.49686 16.7726 7.99415 17.0704C9.49144 17.3683 11.0434 17.2154 12.4538 16.6312C13.8643 16.047 15.0698 15.0576 15.9179 13.7883C16.7661 12.519 17.2188 11.0266 17.2188 9.5C17.2166 7.45352 16.4027 5.49148 14.9556 4.04441C13.5085 2.59733 11.5465 1.78341 9.5 1.78125ZM12.8888 8.13883L8.73258 12.2951C8.67744 12.3503 8.61195 12.3941 8.53987 12.424C8.46779 12.4538 8.39053 12.4692 8.3125 12.4692C8.23448 12.4692 8.15721 12.4538 8.08513 12.424C8.01305 12.3941 7.94757 12.3503 7.89242 12.2951L6.11117 10.5138C5.99976 10.4024 5.93717 10.2513 5.93717 10.0938C5.93717 9.93619 5.99976 9.78508 6.11117 9.67367C6.22259 9.56226 6.37369 9.49967 6.53125 9.49967C6.68881 9.49967 6.83992 9.56226 6.95133 9.67367L8.3125 11.0356L12.0487 7.29867C12.1038 7.24351 12.1693 7.19975 12.2414 7.16989C12.3135 7.14004 12.3907 7.12467 12.4688 7.12467C12.5468 7.12467 12.624 7.14004 12.6961 7.16989C12.7682 7.19975 12.8337 7.24351 12.8888 7.29867C12.944 7.35384 12.9878 7.41933 13.0176 7.49141C13.0475 7.56348 13.0628 7.64073 13.0628 7.71875C13.0628 7.79677 13.0475 7.87402 13.0176 7.94609C12.9878 8.01817 12.944 8.08366 12.8888 8.13883Z" fill="#01AB31"/>
</svg>
