<svg xmlns="http://www.w3.org/2000/svg" >

<symbol id="slider-button-left"  viewBox="0 0 19 16" fill="none" >
  <path d="M7.08089 0.332033L0.330892 7.08203C0.226013 7.18655 0.142797 7.31074 0.0860175 7.44749C0.0292357 7.58423 5.62635e-06 7.73084 5.62811e-06 7.87891C5.62988e-06 8.02697 0.0292357 8.17358 0.0860175 8.31033C0.142797 8.44708 0.226013 8.57127 0.330892 8.67578L7.08089 15.4258C7.29224 15.6371 7.57888 15.7559 7.87777 15.7559C8.17665 15.7559 8.4633 15.6371 8.67464 15.4258C8.88599 15.2144 9.00472 14.9278 9.00472 14.6289C9.00472 14.33 8.88599 14.0434 8.67464 13.832L3.84558 9.00297L17.6268 9.00297C17.9252 9.00297 18.2113 8.88444 18.4223 8.67347C18.6333 8.46249 18.7518 8.17634 18.7518 7.87797C18.7518 7.5796 18.6333 7.29345 18.4223 7.08248C18.2113 6.8715 17.9252 6.75297 17.6268 6.75297L3.84558 6.75297L8.67558 1.92391C8.88693 1.71256 9.00566 1.42592 9.00566 1.12703C9.00566 0.828148 8.88693 0.541504 8.67558 0.330159C8.46424 0.118815 8.17759 8.02347e-05 7.87871 8.02383e-05C7.57982 8.02419e-05 7.29318 0.118815 7.08183 0.330159L7.08089 0.332033Z" fill="black" />
</symbol>

<symbol id="slider-button-right"  viewBox="0 0 19 16" fill="none" >
  <path d="M11.6709 0.332033L18.4209 7.08203C18.5258 7.18655 18.609 7.31074 18.6658 7.44749C18.7226 7.58423 18.7518 7.73084 18.7518 7.87891C18.7518 8.02697 18.7226 8.17358 18.6658 8.31033C18.609 8.44707 18.5258 8.57127 18.4209 8.67578L11.6709 15.4258C11.4596 15.6371 11.1729 15.7559 10.8741 15.7559C10.5752 15.7559 10.2885 15.6371 10.0772 15.4258C9.86584 15.2144 9.74711 14.9278 9.74711 14.6289C9.74711 14.33 9.86584 14.0434 10.0772 13.832L14.9063 9.00297L1.125 9.00297C0.826632 9.00297 0.540483 8.88444 0.329505 8.67347C0.118527 8.46249 9.03849e-08 8.17634 9.39429e-08 7.87797C9.75009e-08 7.5796 0.118527 7.29345 0.329505 7.08248C0.540483 6.8715 0.826632 6.75297 1.125 6.75297L14.9063 6.75297L10.0763 1.92391C9.86491 1.71256 9.74617 1.42592 9.74617 1.12703C9.74617 0.828148 9.86491 0.541504 10.0763 0.330159C10.2876 0.118815 10.5742 8.02347e-05 10.8731 8.02383e-05C11.172 8.02419e-05 11.4587 0.118815 11.67 0.330159L11.6709 0.332033Z" fill="black" />
</symbol>

<symbol id="verified"  viewBox="0 0 24 24" fill="none" >
  <path d="M12 2.25C10.0716 2.25 8.18657 2.82183 6.58319 3.89317C4.97982 4.96451 3.73013 6.48726 2.99218 8.26884C2.25422 10.0504 2.06114 12.0108 2.43735 13.9021C2.81355 15.7934 3.74215 17.5307 5.10571 18.8943C6.46928 20.2579 8.20656 21.1865 10.0979 21.5627C11.9892 21.9389 13.9496 21.7458 15.7312 21.0078C17.5127 20.2699 19.0355 19.0202 20.1068 17.4168C21.1782 15.8134 21.75 13.9284 21.75 12C21.7473 9.41498 20.7192 6.93661 18.8913 5.10872C17.0634 3.28084 14.585 2.25273 12 2.25ZM16.2806 10.2806L11.0306 15.5306C10.961 15.6004 10.8783 15.6557 10.7872 15.6934C10.6962 15.7312 10.5986 15.7506 10.5 15.7506C10.4014 15.7506 10.3038 15.7312 10.2128 15.6934C10.1218 15.6557 10.039 15.6004 9.96938 15.5306L7.71938 13.2806C7.57865 13.1399 7.49959 12.949 7.49959 12.75C7.49959 12.551 7.57865 12.3601 7.71938 12.2194C7.86011 12.0786 8.05098 11.9996 8.25 11.9996C8.44903 11.9996 8.6399 12.0786 8.78063 12.2194L10.5 13.9397L15.2194 9.21937C15.2891 9.14969 15.3718 9.09442 15.4628 9.0567C15.5539 9.01899 15.6515 8.99958 15.75 8.99958C15.8486 8.99958 15.9461 9.01899 16.0372 9.0567C16.1282 9.09442 16.2109 9.14969 16.2806 9.21937C16.3503 9.28906 16.4056 9.37178 16.4433 9.46283C16.481 9.55387 16.5004 9.65145 16.5004 9.75C16.5004 9.84855 16.481 9.94613 16.4433 10.0372C16.4056 10.1282 16.3503 10.2109 16.2806 10.2806Z" fill="#01AB31" />
</symbol>

</svg>